<?xml version="1.0" encoding="UTF-8" standalone="no"?>
<svg
   xmlns:dc="http://purl.org/dc/elements/1.1/"
   xmlns:cc="http://creativecommons.org/ns#"
   xmlns:rdf="http://www.w3.org/1999/02/22-rdf-syntax-ns#"
   xmlns:svg="http://www.w3.org/2000/svg"
   xmlns="http://www.w3.org/2000/svg"
   xmlns:sodipodi="http://sodipodi.sourceforge.net/DTD/sodipodi-0.dtd"
   xmlns:inkscape="http://www.inkscape.org/namespaces/inkscape"
   width="446.39362"
   height="79.151985"
   viewBox="0 0 446.39362 79.151985"
   fill="none"
   version="1.1"
   id="svg846"
   sodipodi:docname="wordmark-black-text.svg"
   inkscape:version="1.0.2 (e86c8708, 2021-01-15)">
  <metadata
     id="metadata850">
    <rdf:RDF>
      <cc:Work
         rdf:about="">
        <dc:format>image/svg+xml</dc:format>
        <dc:type
           rdf:resource="http://purl.org/dc/dcmitype/StillImage" />
        <dc:title></dc:title>
      </cc:Work>
    </rdf:RDF>
  </metadata>
  <sodipodi:namedview
     pagecolor="#ffffff"
     bordercolor="#666666"
     borderopacity="1"
     objecttolerance="10"
     gridtolerance="10"
     guidetolerance="10"
     inkscape:pageopacity="0"
     inkscape:pageshadow="2"
     inkscape:window-width="1919"
     inkscape:window-height="1016"
     id="namedview848"
     showgrid="false"
     showguides="true"
     inkscape:guide-bbox="true"
     fit-margin-top="0"
     fit-margin-left="0"
     fit-margin-right="0"
     fit-margin-bottom="0"
     inkscape:zoom="1.9681529"
     inkscape:cx="308.41909"
     inkscape:cy="39.824341"
     inkscape:window-x="0"
     inkscape:window-y="25"
     inkscape:window-maximized="0"
     inkscape:current-layer="svg846" />
  <path
     d="M 72.9455,17.520541 C 71.8169,9.022091 64.5038,2.313351 55.846,1.022751 54.3811,0.803588 48.8453,0 36.0206,0 H 35.9245 C 23.0879,0 20.338,0.803588 18.873,1.022751 10.4433,2.289011 2.7581303,8.303741 0.88487031,16.911841 c -0.888606,4.2371 -0.984671,8.9369 -0.816557,13.247 0.240162,6.1853 0.288195,12.346 0.840567,18.5069 0.38425999,4.0911 1.04470999,8.1455 1.99334999,12.139 1.7772,7.3784 8.9580697,13.515 15.9948697,16.011 7.529,2.6055 15.6346,3.0438 23.3917,1.2539 0.8526,-0.2068 1.6932,-0.4382 2.5338,-0.7061 1.8853,-0.6088 4.0947,-1.2906 5.7278,-2.4837 0.0241,-0.0123 0.0361,-0.0366 0.0481,-0.061 0.012,-0.0243 0.024,-0.0487 0.024,-0.0852 v -5.966 c 0,0 0,-0.0487 -0.024,-0.0731 0,-0.0243 -0.024,-0.0487 -0.0481,-0.0609 -0.024,-0.0121 -0.048,-0.0243 -0.0719,-0.0365 -0.0242,0 -0.0481,0 -0.0721,0 -4.9715,1.2055 -10.0748,1.8142 -15.1783,1.802 -8.802,0 -11.1676,-4.2371 -11.84,-5.9904 -0.5404,-1.5219 -0.8886,-3.1169 -1.0327,-4.7241 0,-0.0244 0,-0.0487 0.012,-0.073 0,-0.0244 0.024,-0.0487 0.0481,-0.061 0.0239,-0.0121 0.0479,-0.0243 0.0719,-0.0364 h 0.0841 c 4.8873,1.1931 9.9067,1.8019 14.9381,1.8019 1.2129,0 2.4136,0 3.6265,-0.0364 5.0554,-0.1462 10.3871,-0.4019 15.3704,-1.3881 0.12,-0.0244 0.2522,-0.0487 0.3602,-0.073 7.8534,-1.5342 15.3224,-6.3314 16.0788,-18.4826 0.0242,-0.4748 0.0962,-5.0163 0.0962,-5.5033 0,-1.6925 0.5403,-11.9686 -0.0841,-18.2877 z"
     fill="url(#paint0_linear_612_176)"
     id="path833"
     style="fill:url(#paint0_linear_612_176)" />
  <path
     d="m 14.8145,22.269541 c 0,-2.4839 1.9573,-4.4806 4.3829,-4.4806 2.4257,0 4.3829,2.0089 4.3829,4.4806 0,2.4716 -1.9572,4.4805 -4.3829,4.4805 -2.4256,0 -4.3829,-2.0089 -4.3829,-4.4805 z"
     fill="#ffffff"
     id="path835" />
  <defs
     id="defs844">
    <linearGradient
       id="paint0_linear_612_176"
       x1="37.120998"
       y1="0.175659"
       x2="37.120998"
       y2="79.316902"
       gradientUnits="userSpaceOnUse"
       gradientTransform="translate(-0.49999969,-0.175659)">
      <stop
         stop-color="#6364FF"
         id="stop839" />
      <stop
         offset="1"
         stop-color="#563ACC"
         id="stop841" />
    </linearGradient>
  </defs>
  <g
     aria-label="astoscraper"
     id="text854"
     style="font-size:65.9426px;line-height:1.25;font-family:sans-serif;stroke-width:2.47284"
     transform="translate(-0.49999969,-0.175659)">
    <path
       id="path931"
       style="font-style:normal;font-variant:normal;font-weight:bold;font-stretch:normal;font-size:65.9426px;font-family:Gilroy;-inkscape-font-specification:'Gilroy, Bold';font-variant-ligatures:normal;font-variant-caps:normal;font-variant-numeric:normal;font-variant-east-asian:normal;fill:#000000;stroke-width:2.47284"
       d="m 436.87035,13.352322 v 5.671063 q 1.12103,-3.099302 3.82467,-4.681924 2.70365,-1.648565 6.19861,-1.648565 v 9.495734 q -3.89062,-0.527541 -6.98992,1.582622 -3.03336,2.04422 -3.03336,6.792087 V 46.32362 h -8.50659 V 13.352322 Z M 422.16,33.332928 h -24.86036 q 1.64856,6.198604 9.29791,6.198604 4.87975,0 7.38557,-3.297129 l 6.85803,3.956555 q -4.87976,7.055858 -14.37549,7.055858 -8.17688,0 -13.12258,-4.945695 -4.94569,-4.945694 -4.94569,-12.46315 0,-7.385571 4.87975,-12.397208 4.81381,-5.011638 12.52909,-5.011638 7.31963,0 11.93561,5.011638 4.74787,5.011637 4.74787,12.397208 0,1.384794 -0.32971,3.494957 z m -24.99225,-6.594259 h 16.81537 q -0.72537,-3.231188 -2.96742,-4.945695 -2.17611,-1.714508 -5.20947,-1.714508 -3.42901,0 -5.67106,1.780451 -2.24205,1.714507 -2.96742,4.879752 z M 367.95827,12.429125 q 6.6602,0 11.34212,5.07758 4.74787,5.07758 4.74787,12.331266 0,7.385571 -4.74787,12.397208 -4.61598,5.011637 -11.34212,5.011637 -6.92398,0 -10.6827,-4.813809 v 17.079132 h -8.5066 V 13.352322 h 8.5066 v 3.890613 q 3.75872,-4.81381 10.6827,-4.81381 z m -8.11094,24.134991 q 2.57176,2.571761 6.52831,2.571761 3.95656,0 6.52832,-2.571761 2.6377,-2.637704 2.6377,-6.726145 0,-4.088441 -2.6377,-6.660203 -2.57176,-2.637703 -6.52832,-2.637703 -3.95655,0 -6.52831,2.637703 -2.57176,2.571762 -2.57176,6.660203 0,4.088441 2.57176,6.726145 z m -27.3631,-19.321181 v -3.890613 h 8.5066 V 46.32362 h -8.5066 v -3.890613 q -3.82467,4.813809 -10.74864,4.813809 -6.59426,0 -11.34213,-5.011637 -4.68192,-5.07758 -4.68192,-12.397208 0,-7.253686 4.68192,-12.331266 4.74787,-5.07758 11.34213,-5.07758 6.92397,0 10.74864,4.81381 z m -15.69434,19.321181 q 2.57176,2.571761 6.52832,2.571761 3.95656,0 6.52832,-2.571761 2.6377,-2.637704 2.6377,-6.726145 0,-4.088441 -2.6377,-6.660203 -2.57176,-2.637703 -6.52832,-2.637703 -3.95656,0 -6.52832,2.637703 -2.57176,2.571762 -2.57176,6.660203 0,4.088441 2.57176,6.726145 z M 293.78005,13.352322 v 5.671063 q 1.12103,-3.099302 3.82467,-4.681924 2.70365,-1.648565 6.19861,-1.648565 v 9.495734 q -3.89062,-0.527541 -6.98992,1.582622 -3.03336,2.04422 -3.03336,6.792087 V 46.32362 h -8.50659 V 13.352322 Z M 265.6782,47.246816 q -7.45152,0 -12.46315,-5.011637 -4.9457,-5.011637 -4.9457,-12.397208 0,-7.385571 4.9457,-12.397208 5.01163,-5.011638 12.46315,-5.011638 4.81381,0 8.77036,2.307991 3.95656,2.307991 6.00078,6.198604 l -7.31963,4.286269 q -0.98914,-2.044221 -3.03336,-3.231187 -1.97828,-1.186967 -4.48409,-1.186967 -3.82468,0 -6.33049,2.571761 -2.50582,2.505819 -2.50582,6.462375 0,3.82467 2.50582,6.462374 2.50581,2.505819 6.33049,2.505819 2.57176,0 4.55003,-1.121024 2.04422,-1.186967 3.03336,-3.231188 l 7.38557,4.220327 q -2.1761,3.956555 -6.1986,6.264546 -3.95656,2.307991 -8.70442,2.307991 z M 227.95079,22.71617 q 0,2.110163 6.00078,3.626843 2.11016,0.461598 3.82467,1.121024 1.71451,0.593484 3.42902,1.78045 1.78045,1.121025 2.76959,3.03336 0.98913,1.912335 0.98913,4.418154 0,5.07758 -3.82467,7.847169 -3.82467,2.703646 -9.42979,2.703646 -10.15516,0 -13.84794,-7.847169 l 7.38557,-4.154383 q 1.51668,4.286268 6.46237,4.286268 4.55004,0 4.55004,-2.835531 0,-2.110163 -6.00077,-3.626843 -2.24205,-0.593483 -3.82467,-1.186967 -1.58263,-0.593483 -3.42902,-1.714507 -1.84639,-1.186967 -2.83553,-2.967417 -0.9232,-1.846393 -0.9232,-4.286269 0,-4.879752 3.5609,-7.649341 3.62685,-2.835532 8.9682,-2.835532 4.02249,0 7.31962,1.846393 3.29713,1.78045 5.20947,5.143522 l -7.25369,3.956556 q -1.58262,-3.363072 -5.2754,-3.363072 -1.64857,0 -2.76959,0.791311 -1.05509,0.725369 -1.05509,1.912335 z m -18.13627,19.519009 q -5.01164,5.011637 -12.39721,5.011637 -7.38557,0 -12.39721,-5.011637 -5.01164,-5.011637 -5.01164,-12.397208 0,-7.319628 5.01164,-12.331266 5.07758,-5.07758 12.39721,-5.07758 7.31963,0 12.39721,5.07758 5.07758,5.07758 5.07758,12.331266 0,7.319628 -5.07758,12.397208 z m -18.79364,-5.868891 q 2.57176,2.571761 6.39643,2.571761 3.82467,0 6.39643,-2.571761 2.57176,-2.571761 2.57176,-6.528317 0,-3.956556 -2.57176,-6.528317 -2.57176,-2.571762 -6.39643,-2.571762 -3.82467,0 -6.39643,2.571762 -2.50582,2.637704 -2.50582,6.528317 0,3.890613 2.50582,6.528317 z M 176.75564,13.352322 v 8.176882 h -7.45151 v 13.71606 q 0,1.714507 0.85725,2.505818 0.85726,0.791311 2.50582,0.923197 1.64857,0.06594 4.08844,-0.06594 v 7.715284 q -8.63848,0.989139 -12.33126,-1.582622 -3.62685,-2.637704 -3.62685,-9.495734 v -13.71606 h -5.737 v -8.176882 h 5.737 V 6.6921194 l 8.5066,-2.5717613 v 9.2319639 z m -40.37748,9.363848 q 0,2.110163 6.00078,3.626843 2.11016,0.461598 3.82467,1.121024 1.71451,0.593484 3.42901,1.78045 1.78046,1.121025 2.76959,3.03336 0.98914,1.912335 0.98914,4.418154 0,5.07758 -3.82467,7.847169 -3.82467,2.703646 -9.42979,2.703646 -10.15516,0 -13.84794,-7.847169 l 7.38557,-4.154383 q 1.51668,4.286268 6.46237,4.286268 4.55004,0 4.55004,-2.835531 0,-2.110163 -6.00078,-3.626843 -2.24204,-0.593483 -3.82467,-1.186967 -1.58262,-0.593483 -3.42901,-1.714507 -1.84639,-1.186967 -2.83553,-2.967417 -0.9232,-1.846393 -0.9232,-4.286269 0,-4.879752 3.5609,-7.649341 3.62684,-2.835532 8.96819,-2.835532 4.0225,0 7.31963,1.846393 3.29713,1.78045 5.20947,5.143522 l -7.25369,3.956556 q -1.58262,-3.363072 -5.27541,-3.363072 -1.64856,0 -2.76959,0.791311 -1.05508,0.725369 -1.05508,1.912335 z m -23.87431,-5.473235 v -3.890613 h 8.5066 V 46.32362 h -8.5066 v -3.890613 q -3.82467,4.813809 -10.74864,4.813809 -6.594259,0 -11.342126,-5.011637 -4.681925,-5.07758 -4.681925,-12.397208 0,-7.253686 4.681925,-12.331266 4.747867,-5.07758 11.342126,-5.07758 6.92397,0 10.74864,4.81381 z M 96.809516,36.564116 q 2.571761,2.571761 6.528314,2.571761 3.95656,0 6.52832,-2.571761 2.6377,-2.637704 2.6377,-6.726145 0,-4.088441 -2.6377,-6.660203 -2.57176,-2.637703 -6.52832,-2.637703 -3.956553,0 -6.528314,2.637703 -2.571762,2.571762 -2.571762,6.660203 0,4.088441 2.571762,6.726145 z M 80.5188,26.3048 v 20.601 H 72.5334 V 26.9136 c 0,-4.2128 -1.7292,-6.3436 -5.1996,-6.3436 -3.8305,0 -5.7639,2.5448 -5.7639,7.5489 V 39.0647 H 53.6446 V 28.1189 c 0,-5.0285 -1.9093,-7.5489 -5.7639,-7.5489 -3.4583,0 -5.1996,2.1308 -5.1996,6.3436 V 46.8937 H 34.7078 V 26.3048 c 0,-4.2006 1.0447,-7.5489 3.1461,-10.0327 2.1735,-2.4838 5.0194,-3.7379 8.5377,-3.7379 4.0828,0 7.1809,1.6071 9.2224,4.8215 l 1.9933,3.4092 1.9934,-3.4092 c 2.0413,-3.2021 5.1274,-4.8215 9.2222,-4.8215 3.5183,0 6.3643,1.2663 8.5378,3.7379 2.1014,2.4838 3.1461,5.8077 3.1461,10.0327 z" />
  </g>
</svg>
